<svg width="93" height="265" fill="none" xmlns="http://www.w3.org/2000/svg"><g clip-path="url(#clip0)"><path d="M53.49 30.54c-2.17-1.81.56-5.97 1.55-5.86.99.11 1.99.22 2.43-3.75.44-3.98-1.54-4.2-1.54-4.2C57.26 4.8 52.93-.61 44.61.05c-6.67.53-11.17 4.98-11.17 16.03 0 0-2 0-2 4s1 4 2 4 3 3 1 5c-1.58 1.58-12 6-14 10s.5 3.5-3 4c-.99.14-8 1-10 6s-7 27-7 46-1 47 0 48 4 0 4 1-1 6 6 6-4 43-2 45 17 5 17 5 8 53 8 58 8 3 8 3-1 2 0 3 16 1 17 0 1-8 0-9-4 0-5-1-2-12-1-17 8-35 9-36 16 1 17-1-3-82-3-82 6 10 6 15 0 13 4 13 7-2 7-11-4-32-5-38-7-18-7-23 0-22-4-27-15.5-4.5-15-6" fill="#000"/></g><defs><clipPath id="clip0"><path fill="#fff" d="M0 0h92.44v264.83H0z"/></clipPath></defs></svg>